<?xml version="1.0" encoding="UTF-8"?>
<svg width="24px" height="24px" viewBox="0 0 24 24" version="1.1" xmlns="http://www.w3.org/2000/svg" xmlns:xlink="http://www.w3.org/1999/xlink">
    <!-- Generator: Sketch 54.1 (76490) - https://sketchapp.com -->
    <title>twitter</title>
    <desc>Created with Sketch.</desc>
    <g id="Rebranding-02" stroke="none" stroke-width="1" fill="none" fill-rule="evenodd">
        <g id="Página-Inicial---Rebranding-V1.1-Copy-3" transform="translate(-312.000000, -4566.000000)" fill="#FFFFFF" fill-rule="nonzero">
            <g id="twitter" transform="translate(312.000000, 4566.000000)">
                <path d="M12,24 C18.627417,24 24,18.627417 24,12 C24,5.372583 18.627417,0 12,0 C5.372583,0 0,5.372583 0,12 C0,18.627417 5.372583,24 12,24 Z M17.9476606,8.99047619 C17.9476606,9.12380952 17.9476606,9.25714286 17.9476606,9.39047619 C17.9476606,13.3904762 14.8643933,18 9.21173672,18 C7.47977795,18 5.86201427,17.5047619 4.51070579,16.647619 C4.75812847,16.6666667 4.98651864,16.6857143 5.23394132,16.6857143 C6.68041237,16.6857143 7.99365583,16.2095238 9.04044409,15.3904762 C7.68913561,15.3714286 6.56621729,14.4952381 6.1665345,13.2952381 C6.35685964,13.3333333 6.54718477,13.352381 6.73750991,13.352381 C7.02299762,13.352381 7.30848533,13.3142857 7.55590801,13.2380952 C6.18556701,12.952381 5.13877875,11.7333333 5.13877875,10.2666667 L5.13877875,10.2285714 C5.51942902,10.4571429 6.01427439,10.5904762 6.50911975,10.6095238 C5.69072165,10.0761905 5.13877875,9.14285714 5.13877875,8.0952381 C5.13877875,7.54285714 5.29103886,7.02857143 5.55749405,6.57142857 C7.08009516,8.4 9.3259318,9.6 11.8762887,9.73333333 C11.8191911,9.5047619 11.8001586,9.27619048 11.8001586,9.04761905 C11.8001586,7.37142857 13.1704996,6.01904762 14.8643933,6.01904762 C15.739889,6.01904762 16.5392546,6.38095238 17.11023,6.97142857 C17.814433,6.83809524 18.4615385,6.59047619 19.0515464,6.22857143 C18.8231562,6.93333333 18.3283109,7.52380952 17.7002379,7.9047619 C18.3283109,7.82857143 18.9183188,7.67619048 19.4702617,7.42857143 C19.0515464,8.03809524 18.5376685,8.57142857 17.9476606,8.99047619 Z" id="Shape"></path>
            </g>
        </g>
    </g>
</svg>