<?xml version="1.0" encoding="UTF-8"?>
<svg width="24px" height="24px" viewBox="0 0 24 24" version="1.1" xmlns="http://www.w3.org/2000/svg" xmlns:xlink="http://www.w3.org/1999/xlink">
    <!-- Generator: Sketch 54.1 (76490) - https://sketchapp.com -->
    <title>023-facebook</title>
    <desc>Created with Sketch.</desc>
    <g id="Rebranding-02" stroke="none" stroke-width="1" fill="none" fill-rule="evenodd">
        <g id="Página-Inicial---Rebranding-V1.1-Copy-3" transform="translate(-232.000000, -4566.000000)" fill="#FFFFFF" fill-rule="nonzero">
            <g id="023-facebook" transform="translate(244.000000, 4578.000000) rotate(-360.000000) translate(-244.000000, -4578.000000) translate(232.000000, 4566.000000)">
                <path d="M12,24 C18.627417,24 24,18.627417 24,12 C24,5.372583 18.627417,-4.54747351e-13 12,-4.54747351e-13 C5.372583,-4.54747351e-13 0,5.372583 0,12 C0,18.627417 5.372583,24 12,24 Z M15.2190476,12 L12.952381,12 L12.952381,19.4285714 L10.0952381,19.4285714 L10.0952381,12 L8.57142857,12 L8.57142857,8.95238095 L9.9047619,8.95238095 L9.9047619,7.65714286 C9.9047619,6.43809524 10.5142857,4.51428571 13.0857143,4.51428571 L15.4285714,4.51428571 L15.4285714,7.04761905 L13.7714286,7.04761905 C13.5047619,7.04761905 13.1428571,7.21904762 13.1428571,7.80952381 L13.1428571,8.95238095 L15.4857143,8.95238095 L15.2190476,12 Z" id="Shape"></path>
            </g>
        </g>
    </g>
</svg>