<?xml version="1.0" encoding="UTF-8"?>
<svg width="24px" height="25px" viewBox="0 0 24 25" version="1.1" xmlns="http://www.w3.org/2000/svg" xmlns:xlink="http://www.w3.org/1999/xlink">
    <!-- Generator: Sketch 54.1 (76490) - https://sketchapp.com -->
    <title>020-instagram</title>
    <desc>Created with Sketch.</desc>
    <g id="Rebranding-02" stroke="none" stroke-width="1" fill="none" fill-rule="evenodd">
        <g id="Página-Inicial---Rebranding-V1.1-Copy-3" transform="translate(-272.000000, -4565.000000)" fill="#FFFFFF" fill-rule="nonzero">
            <g id="020-instagram" transform="translate(272.000000, 4565.000000)">
                <path d="M12,24.9619802 C5.372583,24.9619802 0,19.5893972 0,12.9619802 C0,6.3345632 5.372583,0.961980198 12,0.961980198 C18.627417,0.961980198 24,6.3345632 24,12.9619802 C24,19.5893972 18.627417,24.9619802 12,24.9619802 Z M19.390099,11.4459406 L19.390099,8.40435644 C19.390099,6.80752475 18.1544554,5.57188119 16.5576238,5.57188119 L7.39485149,5.57188119 C5.7980198,5.57188119 4.56237624,6.80752475 4.56237624,8.40435644 L4.56237624,11.4459406 L4.56237624,17.5671287 C4.56237624,19.1639604 5.7980198,20.399604 7.39485149,20.399604 L16.5576238,20.399604 C18.1544554,20.399604 19.390099,19.1639604 19.390099,17.5671287 L19.390099,11.4459406 Z M14.1053465,11.4459406 C14.409505,11.8831683 14.599604,12.4154455 14.599604,12.9857426 C14.599604,14.430495 13.4209901,15.6091089 11.9762376,15.6091089 C10.5314851,15.6091089 9.35287129,14.430495 9.35287129,12.9857426 C9.35287129,12.4154455 9.5429703,11.8831683 9.84712871,11.4459406 C10.3223762,10.7805941 11.1017822,10.3433663 11.9762376,10.3433663 C12.8506931,10.3433663 13.630099,10.7805941 14.1053465,11.4459406 Z M15.7592079,11.4649505 L18.0594059,11.4649505 L18.0594059,17.5671287 C18.0594059,18.3655446 17.3560396,19.0689109 16.5576238,19.0689109 L7.39485149,19.0689109 C6.59643564,19.0689109 5.89306931,18.3655446 5.89306931,17.5671287 L5.89306931,11.4649505 L8.19326733,11.4649505 C8.00316832,11.8451485 7.88910891,12.4344554 7.88910891,12.9857426 C7.88910891,15.2479208 9.71405941,17.0728713 11.9762376,17.0728713 C14.2384158,17.0728713 16.0633663,15.2289109 16.0633663,12.9857426 C16.0633663,12.4534653 15.9493069,11.8451485 15.7592079,11.4649505 Z M17.3750495,7.24475248 L17.6792079,7.22574257 L17.6792079,7.56792079 L17.6792079,9.77306931 L15.169901,9.77306931 L15.169901,7.24475248 L17.3750495,7.24475248 Z" id="Combined-Shape"></path>
            </g>
        </g>
    </g>
</svg>