<svg width="24" height="26" viewBox="0 0 24 26" fill="none" xmlns="http://www.w3.org/2000/svg">
<path d="M24 12.6214C24 19.592 18.6274 25.2428 12 25.2428C5.37258 25.2428 0 19.592 0 12.6214C0 5.6508 5.37258 0 12 0C18.6274 0 24 5.6508 24 12.6214Z" fill="white"/>
<path d="M18 9.67642V11.3593C17.25 11.3593 16.5 11.2015 15.8 10.886C15.35 10.6756 14.95 10.4127 14.55 10.0971V15.3561C14.55 16.513 14.1 17.67 13.3 18.5114C12.65 19.1951 11.8 19.6158 10.9 19.7735C10.7 19.8261 10.45 19.8261 10.25 19.8261C9.3 19.8261 8.35 19.5106 7.6 18.8795C7.45 18.7744 7.3 18.6166 7.2 18.5114C6.35 17.6174 5.9 16.3553 5.95 15.0931C6 14.0939 6.4 13.1473 7 12.4111C7.85 11.4119 9 10.886 10.2 10.886C10.4 10.886 10.65 10.886 10.85 10.9386V13.3051C10.65 13.2525 10.45 13.1999 10.2 13.1999C9.05 13.1999 8.15 14.1465 8.15 15.3561C8.15 16.0923 8.55 16.776 9.15 17.1441C9.4 17.3019 9.75 17.407 10.1 17.4596C10.35 17.4596 10.6 17.4596 10.85 17.3544C11.65 17.0915 12.25 16.3027 12.25 15.3561V5.41669H14.5C14.5 5.62705 14.5 5.88999 14.55 6.10035C14.7 6.99437 15.2 7.78321 15.85 8.3091C16.45 8.7824 17.15 9.04535 17.95 9.04535V9.67642H18Z" fill="#414141"/>
</svg>
