<?xml version="1.0" encoding="UTF-8"?>
<svg width="24px" height="24px" viewBox="0 0 24 24" version="1.1" xmlns="http://www.w3.org/2000/svg" xmlns:xlink="http://www.w3.org/1999/xlink">
    <!-- Generator: Sketch 54.1 (76490) - https://sketchapp.com -->
    <title>001-youtube</title>
    <desc>Created with Sketch.</desc>
    <g id="Rebranding-02" stroke="none" stroke-width="1" fill="none" fill-rule="evenodd">
        <g id="Página-Inicial---Rebranding-V1.1-Copy-3" transform="translate(-352.000000, -4566.000000)" fill="#F1F6F8" fill-rule="nonzero">
            <g id="001-youtube" transform="translate(352.000000, 4566.000000)">
                <polygon id="Path" points="10.4571429 9.63809524 10.4571429 14.0190476 14.4952381 11.847619"></polygon>
                <path d="M12,24 C18.627417,24 24,18.627417 24,12 C24,5.372583 18.627417,0 12,0 C5.372583,0 0,5.372583 0,12 C0,18.627417 5.372583,24 12,24 Z M19.4285714,12.5904762 C19.4285714,13.847619 19.3142857,15.1238095 19.3142857,15.1238095 C19.3142857,15.1238095 19.1809524,16.1904762 18.7428571,16.6666667 C18.1714286,17.2952381 17.5428571,17.2952381 17.2571429,17.3333333 C15.1619048,17.4857143 12.0190476,17.5047619 12.0190476,17.5047619 C12.0190476,17.5047619 8.11428571,17.447619 6.91428571,17.3333333 C6.59047619,17.2761905 5.82857143,17.2952381 5.25714286,16.6666667 C4.8,16.1904762 4.68571429,15.1238095 4.68571429,15.1238095 C4.68571429,15.1238095 4.57142857,13.847619 4.57142857,12.5904762 L4.57142857,11.4095238 C4.57142857,10.152381 4.68571429,8.87619048 4.68571429,8.87619048 C4.68571429,8.87619048 4.81904762,7.80952381 5.25714286,7.33333333 C5.82857143,6.7047619 6.45714286,6.68571429 6.74285714,6.64761905 C8.85714286,6.4952381 12,6.47619048 12,6.47619048 C12,6.47619048 15.1428571,6.4952381 17.2380952,6.64761905 C17.5238095,6.68571429 18.1714286,6.7047619 18.7428571,7.31428571 C19.2,7.79047619 19.3142857,8.87619048 19.3142857,8.87619048 C19.3142857,8.87619048 19.4285714,10.152381 19.4285714,11.4095238 L19.4285714,12.5904762 Z" id="Shape"></path>
            </g>
        </g>
    </g>
</svg>